<?xml version="1.0" encoding="iso-8859-1"?>
<!-- Generator: Adobe Illustrator 18.1.1, SVG Export Plug-In . SVG Version: 6.00 Build 0)  -->
<svg version="1.1" id="Capa_1" xmlns="http://www.w3.org/2000/svg" xmlns:xlink="http://www.w3.org/1999/xlink" x="0px" y="0px"
	 viewBox="0 0 437.073 437.073" style="enable-background:new 0 0 437.073 437.073;" xml:space="preserve">
<g>
	<path style="fill:#010002;" d="M387.178,166.631c-0.036-0.531-0.137-1.044-0.31-1.545c-0.066-0.191-0.113-0.37-0.197-0.555
		c-0.292-0.632-0.656-1.235-1.169-1.748L224.462,1.742c-0.513-0.513-1.11-0.877-1.742-1.164c-0.185-0.09-0.376-0.137-0.573-0.203
		c-0.495-0.167-0.991-0.269-1.51-0.298C220.5,0.066,220.38,0,220.249,0H55.79c-3.294,0-5.967,2.673-5.967,5.967v425.139
		c0,3.3,2.673,5.967,5.967,5.967h325.493c3.3,0,5.967-2.667,5.967-5.967V167.001C387.25,166.869,387.184,166.756,387.178,166.631z
		 M61.757,425.133V11.928h152.519v155.073c0,3.294,2.673,5.967,5.967,5.967h155.073v252.166H61.757z"/>
</g>
<g>
</g>
<g>
</g>
<g>
</g>
<g>
</g>
<g>
</g>
<g>
</g>
<g>
</g>
<g>
</g>
<g>
</g>
<g>
</g>
<g>
</g>
<g>
</g>
<g>
</g>
<g>
</g>
<g>
</g>
</svg>
